<svg width="110.26mm" height="80.154mm" version="1.1" viewBox="0 0 110.26 80.154" xmlns="http://www.w3.org/2000/svg">
 <g transform="translate(-63.523 -97.407)" stroke-width=".26458">
  <path d="m98.411 162.29c-5.2401-0.7471-10.919-3.8063-13.786-7.426l-1.102-1.3916 0.17354-3.3073c0.43911-8.3683 2.5219-17.497 5.8676-25.717 2.0731-5.0934 2.5259-5.8178 4.3971-7.0355 4.0948-2.6645 9.9385-4.768 13.587-4.8907 2.5526-0.0858 2.4798 0.39138-0.19422 1.2735-4.5672 1.5068-10.226 4.3725-12.515 6.3384-0.67496 0.5796-0.47362 0.52464 1.3452-0.36727 6.5801-3.2266 14.08-4.8264 22.605-4.8213 7.8153 5e-3 14.861 1.6188 21.367 4.8952 1.0511 0.52933 1.9111 0.8992 1.9111 0.82193 0-0.0773-1.1011-0.8635-2.4468-1.7472-2.8698-1.8844-6.3016-3.567-9.6841-4.7482-1.3316-0.46501-2.4212-0.93503-2.4212-1.0445 0-1.0092 2.5283-0.94652 6.6838 0.16555 2.7254 0.72936 6.6369 2.494 9.1428 4.1245 1.8712 1.2176 2.324 1.9421 4.3971 7.0355 3.3458 8.2203 5.4285 17.349 5.8676 25.717l0.17354 3.3073-1.0973 1.3856c-2.9251 3.6937-8.6373 6.7071-14.14 7.4595-3.2351 0.44233-3.0166 0.53185-5.1676-2.117-1.0701-1.3177-1.9035-2.4272-1.8521-2.4655 0.0515-0.0383 0.86747-0.33969 1.8134-0.6698 2.4353-0.84991 5.029-2.4392 7.0196-4.3013 1.7792-1.6643 2.2899-2.5175 0.92551-1.5459-1.2759 0.9085-6.0366 3.0888-8.6487 3.9609-5.0196 1.6759-7.0341 1.9687-13.584 1.9745-5.1854 5e-3 -6.2894-0.07-8.5607-0.57815-4.8403-1.083-10.257-3.1084-13.652-5.1048l-1.443-0.84854 0.73505 0.89606c1.7995 2.1937 5.1739 4.3982 9.1219 5.9595 0.60726 0.24015 0.57824 0.2987-1.3229 2.669-2.1776 2.7149-1.9977 2.645-5.5157 2.1435zm11.642-15.047c3.6236-1.8358 4.612-7.1657 1.9135-10.318-2.9424-3.4375-7.8378-2.7854-10.016 1.334-0.35823 0.67766-0.49052 1.4993-0.49323 3.0634-3e-3 1.9204 0.0776 2.2688 0.79632 3.4314 1.8021 2.9148 4.9659 3.9247 7.799 2.4894zm22.001-0.018c2.1593-1.0819 3.5741-3.8776 3.3291-6.5788-0.31307-3.4526-2.8149-5.9109-6.0155-5.9109-3.4297 0-6.0738 2.8584-6.0738 6.5661 0 4.9136 4.5863 8.0148 8.7602 5.9236z" fill="#d4ca98"/>
  <g></g>
 </g>
</svg>
