<svg width="1400" height="1164" fill="none" version="1.1" viewBox="0 0 1400 1164" xmlns="http://www.w3.org/2000/svg">
 <path d="m700 131c-255.26 0-462 206.93-462 462.41 0 204.62 132.25 377.44 315.89 438.71 23.1 4.0461 31.763-9.8261 31.763-21.964 0-10.982-0.5775-47.397-0.5775-86.123-116.08 21.386-146.11-28.322-155.35-54.333-5.1975-13.294-27.72-54.333-47.355-65.315-16.17-8.6702-39.27-30.056-0.57749-30.634 36.382-0.57801 62.37 33.525 71.032 47.397 41.58 69.939 107.99 50.287 134.56 38.149 4.0425-30.056 16.17-50.287 29.452-61.847-102.8-11.56-210.21-51.443-210.21-228.31 0-50.287 17.902-91.904 47.355-124.27-4.62-11.56-20.79-58.957 4.62-122.54 0 0 38.692-12.138 127.05 47.397 36.96-10.404 76.23-15.606 115.5-15.606 39.27 0 78.54 5.2021 115.5 15.606 88.358-60.113 127.05-47.397 127.05-47.397 25.41 63.581 9.24 110.98 4.62 122.54 29.453 32.369 47.355 73.407 47.355 124.27 0 177.45-107.99 216.75-210.79 228.31 16.748 14.45 31.185 42.195 31.185 85.545 0 61.847-0.57751 111.56-0.57751 127.16 0 12.138 8.6625 26.588 31.763 21.964 182.49-61.269 314.74-234.67 314.74-438.71 0-255.48-206.74-462.41-462-462.41z" clip-rule="evenodd" fill="#d4ca98" fill-rule="evenodd" stroke-width="57.775"/>
</svg>
