<svg width="460mm" height="180mm" version="1.1" viewBox="0 0 460 180" xmlns="http://www.w3.org/2000/svg">
 <g transform="translate(-35.202,-62.68)">
  <circle cx="263.5" cy="149.61" r="81.643" display="none" fill="#d4ca98" stroke-width=".24848"/>
  <path d="m216.96 193.66c-3.8254-1.0291-6.9827-3.4106-8.496-6.4083-1.6935-3.3548-1.6612-2.6281-1.6612-37.43v-31.66l0.61767-1.2227c0.33971-0.67247 1.0409-1.5039 1.5581-1.8477l0.94044-0.62505 96.946 0.1476 2.7452 0.76939c12.722 3.5656 20.579 12.81 22.115 26.019 1.069 9.1955-2.1603 18.285-8.6544 24.36-5.7558 5.3843-13.268 8.2762-22.688 8.7342l-3.7377 0.1817-0.13975 2.9101c-0.38259 7.9666-4.383 13.494-11.464 15.839-1.4214 0.47078-3.415 0.50415-34.04 0.56968-28.007 0.0599-32.74 0.0131-34.04-0.33657zm87.334-34.412c3.9862-0.41873 8.3128-3.3067 10.195-6.8052 1.8453-3.4296 2.4442-9.6209 1.2918-13.352-1.1447-3.7061-4.2285-7.0149-7.8658-8.44-1.3789-0.54021-2.2314-0.6422-6.1971-0.74132l-4.5982-0.11493v29.392l0.75493 0.11437c1.3141 0.19908 4.2497 0.17479 6.4192-0.0531z" display="none" fill="#fff" stroke-width=".27452"/>
  <path d="m146.31 194.96c-2.6638-2.0472-22.233-20.426-29.5-27.706-8.494-8.5088-11.617-12.88-13.665-19.129-1.2936-3.9472-1.4528-5.1159-1.4528-10.664 0-6.1931 0.0109-6.2543 1.8494-9.9726 7.0311-14.223 26.919-16.445 41.267-4.6105l3.2816 2.7068 3.3576-2.7294c3.7124-3.0178 10.083-6.3959 13.533-7.1758 3.7455-0.84665 9.9725-0.63636 13.51 0.45624 11.255 3.4763 17.774 13.729 16.271 25.588-0.77609 6.1212-2.7566 10.508-7.3878 16.364-5.2778 6.6735-37.366 37.973-38.93 37.973-0.38646 0-1.347-0.49525-2.1346-1.1005z" fill="#e24e6d" stroke-width=".49638"/>
  <path d="m313.15 186.6c-6.3994-1.721-12.555-6.5077-16.04-12.473-3.2893-5.6298-4.4737-15.918-2.5763-22.377 2.2118-7.5303 7.2493-13.687 13.84-16.915 15.22-7.4548 33.014-0.30625 38.278 15.378 5.2731 15.712-3.158 32.39-18.428 36.454-3.5802 0.95291-11.41 0.9181-15.073-0.067zm14.381-11.479c3.0687-1.5014 5.3897-3.8508 7.1446-7.2324 1.6254-3.1319 1.9904-10.93 0.67488-14.42-1.4327-3.8017-3.6059-6.618-6.579-8.5258-2.376-1.5247-3.24-1.7667-7.0152-1.9649-5.0143-0.26318-7.6876 0.63942-11.145 3.7627-4.0713 3.6782-6.232 11.316-4.8562 17.167 0.82271 3.4987 1.65 5.1574 3.7854 7.5894 4.712 5.3666 11.595 6.7534 17.99 3.6246zm-94.427 9.4768-1.7821-1.7822v-31.004c0-34.015-0.0715-33.22 3.1278-34.874 2.9253-1.5128 7.1633-0.4253 8.3311 2.1377 0.3997 0.87725 0.59681 6.0333 0.59681 15.612 0 7.8664 0.1585 14.461 0.35228 14.655 0.19377 0.19377 7.8313-7.0741 16.972-16.151 9.141-9.0766 17.253-16.744 18.028-17.038 2.4845-0.94458 3.973-0.62714 5.8471 1.247 1.4641 1.4641 1.7822 2.1772 1.7822 3.9959 0 2.1702-0.15701 2.3643-7.993 9.8805-4.3961 4.2167-9.7428 9.3468-11.882 11.4l-3.8886 3.7334 10.178 13.444c14.137 18.673 13.585 17.836 13.585 20.608 0 1.9781-0.28452 2.6384-1.7822 4.1361-1.5422 1.5423-2.1244 1.7806-4.3244 1.7705-1.62-9e-3 -2.9416-0.34017-3.6433-0.9173-0.60562-0.4981-6.0037-7.3922-11.996-15.32-5.992-7.928-10.988-14.52-11.102-14.65-0.11418-0.12928-2.4411 1.9889-5.1707 4.7071l-4.9629 4.9422v18.185l-1.5322 1.5322c-1.2988 1.2988-1.9454 1.5322-4.2457 1.5322-2.3871 0-2.928-0.2144-4.4957-1.7822zm175.2 0.49681c-0.76281-0.70699-1.4386-1.3556-1.5018-1.4415-0.063-0.0859-0.24004-8.8834-0.39313-19.55l-0.27828-19.394-4.109-0.26206c-3.6926-0.23554-4.2372-0.41118-5.3727-1.7328-1.8548-2.1588-1.7414-5.2084 0.26858-7.2184 1.4238-1.4238 1.813-1.5322 5.5037-1.5322h3.9716v-3.8479c0-11.465 6.9306-17.849 19.394-17.863 6.2737-9e-3 9.482 1.8878 9.589 5.6632 0.12189 4.3052-2.3851 6.0032-7.4058 5.0154-4.1444-0.81535-6.4961-0.34536-8.1587 1.6306-1.4795 1.7583-2.0453 3.9863-1.7941 7.066l0.16912 2.0736 5.7658 0.28135c6.5394 0.31914 7.3356 0.56913 8.406 2.639 1.0366 2.0045 0.96178 3.5677-0.26718 5.5832-1.234 2.0238-1.8987 2.206-8.663 2.3738l-5.2416 0.13002-0.2621 19.571-0.26206 19.571-1.4707 1.2645c-2.0801 1.7885-5.9464 1.7783-7.8878-0.0207zm33.692-0.24681-1.5322-1.5322v-23.079c0-16.777 0.17103-23.454 0.62622-24.453 1.4226-3.1222 6.1431-3.83 8.9315-1.3391l1.7118 1.5291 0.16147 22.976c0.14442 20.551 0.0699 23.149-0.70456 24.617-1.7022 3.2273-6.5699 3.9057-9.1942 1.2814zm-81.594-23.868c-3.2914-1.4609-4.2158-6.3826-1.7049-9.0777 0.5711-0.61305 1.9244-1.3607 3.0074-1.6614 2.7269-0.75728 18.802-0.65638 21.052 0.13212 4.0474 1.4182 5.1992 6.4617 2.1684 9.4947l-1.613 1.6142-10.605 0.1262c-8.3043 0.0989-10.974-0.0377-12.304-0.62803zm82.377-35.414c-1.9822-0.61129-2.8395-2.3476-2.8395-5.7508 0-1.9578 0.3002-2.916 1.265-4.0376 1.1402-1.3256 1.5949-1.4707 4.6095-1.4707 2.319 0 3.7794 0.28496 4.7629 0.92936 1.3318 0.87263 1.4184 1.168 1.4184 4.8364 0 3.5336-0.11877 3.985-1.2441 4.7222-1.5534 1.0179-5.8305 1.4316-7.9721 0.77111z" display="none" fill="#fff" stroke-width=".52416"/>
  <g transform="translate(8.1006,4.9406)" fill="#fff" style="shape-inside:url(#rect869);white-space:pre" aria-label="Donate">
   <path d="m226.51 128.6q4.7385 0 8.3086 1.8175 3.635 1.7526 6.0367 4.9332t3.5701 7.335q1.2333 4.0894 1.2333 8.6332 0 6.2315-2.1421 11.424-2.1421 5.128-6.3613 8.2437-4.2192 3.0508-10.645 3.0508h-16.228q-1.1035 0-1.8824-0.77893-0.71402-0.77893-0.71402-1.8824v-40.18q0-1.1035 0.71402-1.8175 0.77894-0.77893 1.8824-0.77893zm-0.64911 40.375q4.9982 0 8.1139-2.4017 3.1806-2.4017 4.6087-6.4262 1.493-4.0245 1.493-8.8279 0-3.5052-0.84384-6.6858-0.77893-3.2456-2.5315-5.7122-1.6877-2.4666-4.414-3.8947-2.6614-1.428-6.4262-1.428h-13.307l0.51928-0.51929v36.545l-0.38946-0.64911z"/>
   <path d="m285.49 157.16q0 5.0631-2.207 9.0226-2.207 3.9596-6.0367 6.2315-3.7648 2.2719-8.5683 2.2719-4.7385 0-8.5683-2.2719-3.7648-2.2719-6.0367-6.2315-2.207-3.9596-2.207-9.0226 0-5.0631 2.207-9.0226 2.2719-3.9596 6.0367-6.2315 3.8298-2.2719 8.5683-2.2719 4.8034 0 8.5683 2.2719 3.8298 2.2719 6.0367 6.2315 2.207 3.9596 2.207 9.0226zm-5.1929 0q0-3.7648-1.5579-6.6209-1.493-2.8561-4.1543-4.4789-2.5964-1.6228-5.9069-1.6228-3.2456 0-5.9069 1.6228-2.6614 1.6228-4.2192 4.4789-1.493 2.8561-1.493 6.6209 0 3.6999 1.493 6.556 1.5579 2.8561 4.2192 4.5438 2.6614 1.6228 5.9069 1.6228 3.3105 0 5.9069-1.6228 2.6614-1.6877 4.1543-4.5438 1.5579-2.8561 1.5579-6.556z"/>
   <path d="m309.67 139.64q4.414 0 6.9455 1.8175t3.5701 4.8683q1.1035 3.0508 1.1035 6.8157v18.24q0 1.1035-0.77893 1.8824-0.71403 0.77893-1.8175 0.77893-1.1035 0-1.8824-0.77893-0.71402-0.77893-0.71402-1.8824v-18.11q0-2.4666-0.77893-4.414-0.71402-2.0122-2.4666-3.1806-1.6877-1.2333-4.6736-1.2333-2.7263 0-4.9982 1.2333-2.2719 1.1684-3.635 3.1806-1.3631 1.9473-1.3631 4.414v18.11q0 1.1035-0.77894 1.8824-0.71402 0.77893-1.8175 0.77893-1.1035 0-1.8824-0.77893-0.71402-0.77893-0.71402-1.8824v-28.301q0-1.1035 0.71402-1.8175 0.77894-0.77894 1.8824-0.77894 1.1684 0 1.8824 0.77894 0.71402 0.71402 0.71402 1.8175v4.6087l-1.2982 1.428q0.32455-1.6877 1.493-3.3754 1.1684-1.7526 2.921-3.1157t3.8947-2.1421q2.1421-0.84384 4.4789-0.84384z"/>
   <path d="m358.23 140.16q1.1684 0 1.8824 0.77893 0.71402 0.71402 0.71402 1.8175v28.626q0 1.1035-0.77893 1.8824-0.71402 0.77893-1.8175 0.77893t-1.8824-0.77893q-0.71403-0.77893-0.71403-1.8824v-6.1666l1.2333-0.12982q0 1.428-0.97366 3.1157-0.97367 1.6877-2.6614 3.1806-1.6877 1.428-3.9596 2.4017-2.2719 0.90875-4.9332 0.90875-4.414 0-7.9841-2.2719-3.5052-2.3368-5.5174-6.2964t-2.0122-9.0226q0-5.128 2.0122-9.0226 2.0772-3.9596 5.5174-6.1666 3.5052-2.2719 7.8542-2.2719 2.7912 0 5.1929 0.90875 2.4017 0.90876 4.1543 2.4666 1.8175 1.5579 2.7912 3.4403 0.97366 1.8824 0.97366 3.7648l-1.6877-0.38947v-7.0753q0-1.1035 0.71403-1.8175 0.77893-0.77893 1.8824-0.77893zm-13.372 29.729q3.2456 0 5.7122-1.6877 2.5315-1.6877 3.9596-4.5438 1.428-2.921 1.428-6.556 0-3.5701-1.428-6.4262-1.428-2.921-3.9596-4.5438-2.4666-1.6877-5.7122-1.6877-3.1806 0-5.7122 1.6228-2.4666 1.6228-3.8947 4.4789-1.428 2.8561-1.428 6.556 0 3.635 1.428 6.556 1.428 2.8561 3.8947 4.5438 2.5315 1.6877 5.7122 1.6877z"/>
   <path d="m369.16 140.67h15.254q1.0386 0 1.6877 0.71402 0.71402 0.71402 0.71402 1.6877 0 1.0386-0.71402 1.7526-0.64912 0.64911-1.6877 0.64911h-15.254q-0.97367 0-1.6877-0.71402-0.71402-0.71403-0.71402-1.7526 0-0.97367 0.71402-1.6228 0.71402-0.71402 1.6877-0.71402zm6.8157-8.8279q1.1035 0 1.8175 0.77893 0.71403 0.71402 0.71403 1.8175v31.352q0 1.5579 0.45437 2.3368 0.45438 0.77894 1.1684 1.1035 0.77894 0.25965 1.493 0.25965 0.64911 0 1.1035-0.19474 0.51929-0.25964 1.1684-0.25964t1.1684 0.64911q0.5842 0.5842 0.5842 1.5579 0 1.1684-1.3631 2.0122-1.3631 0.77893-3.0508 0.77893-0.90875 0-2.2719-0.12982-1.2982-0.12982-2.5964-0.84384-1.2982-0.71403-2.207-2.3368-0.84384-1.6877-0.84384-4.6736v-31.612q0-1.1035 0.77893-1.8175 0.77893-0.77893 1.8824-0.77893z"/>
   <path d="m408.84 174.69q-5.1929 0-9.0876-2.207t-6.0367-6.0367q-2.1421-3.8947-2.1421-8.9577 0-5.6473 2.207-9.6068 2.2719-4.0245 5.842-6.1016 3.5701-2.1421 7.5946-2.1421 3.0508 0 5.7771 1.1035 2.7912 1.1035 4.9332 3.2456 2.207 2.0772 3.5052 5.0631 1.2982 2.921 1.3631 6.556-0.0649 1.0386-0.84384 1.7526-0.77893 0.71402-1.8175 0.71402h-25.64l-1.1684-4.4789h24.991l-1.0386 0.90875v-1.428q-0.19473-2.6614-1.7526-4.5438-1.493-1.9473-3.6999-2.9859-2.207-1.0386-4.6087-1.0386-1.9473 0-3.8947 0.71402-1.8824 0.64911-3.4403 2.207-1.493 1.493-2.4017 3.8947-0.90875 2.4017-0.90875 5.7771 0 3.7648 1.493 6.6209 1.5579 2.8561 4.2841 4.5438 2.7263 1.6228 6.2964 1.6228 2.3368 0 4.0245-0.5842t2.8561-1.428q1.2333-0.90876 2.0772-1.8175 0.84385-0.5842 1.6877-0.5842 0.90876 0 1.5579 0.64911t0.64911 1.5579q0 1.1035-1.0386 1.9473-1.8824 2.0122-4.9982 3.5701-3.0508 1.493-6.6209 1.493z"/>
  </g>
 </g>
</svg>
