<svg width="180mm" height="30mm" version="1.1" viewBox="0 0 180 30" xmlns="http://www.w3.org/2000/svg">
 <g transform="translate(-30,-167)">
  <path d="m190 167v30l-69.836-0.04607-70.164 0.04607v-30zm-130.29 16.614c0.02322-5.2078 0.07277-7.3081 0.17532-7.4316 0.109-0.13134 0.47344-0.16387 1.5347-0.13697l1.3917 0.0353 0.06268 7.3964 0.06268 7.3964h3.0087l0.03235-7.455c0.03587-8.2661 0.0456-8.1517-0.7751-9.1105-0.2315-0.27046-0.72322-0.65769-1.0927-0.86051-0.63701-0.34967-0.76344-0.37126-2.4423-0.41696-2.2146-0.0603-2.8698 0.0992-3.784 0.92119-0.34719 0.31215-0.76261 0.83427-0.92316 1.1602l-0.29191 0.59271-0.03661 7.3337c-0.02013 4.0335-0.0045 7.4624 0.03472 7.6197 0.06984 0.28008 0.10187 0.28529 1.541 0.25073l1.4696-0.0353zm18.633 7.1238c0.15482-0.40345 0.08281-2.5234-0.09061-2.6673-0.10837-0.09-1.194-0.15015-3.1027-0.17206l-2.936-0.0337-0.0343-2.1625-0.0343-2.1625h2.9866c2.1557 0 3.0284-0.0418 3.137-0.15044 0.09746-0.0975 0.15044-0.60354 0.15044-1.4372 0-1.1439-0.02692-1.3012-0.24248-1.4166-0.14707-0.0787-1.3815-0.12978-3.137-0.12978h-2.8945l0.0343-2.1625 0.0343-2.1625 2.936-0.0337c1.9087-0.0219 2.9943-0.0821 3.1027-0.17205 0.18975-0.15748 0.23795-2.4338 0.05756-2.7183-0.08416-0.13274-0.7696-0.15791-3.4142-0.12536-3.1531 0.0388-3.3338 0.054-3.8382 0.32357-0.80797 0.43173-1.3641 0.9787-1.7188 1.6905l-0.32184 0.64584v6.2475c0 6.7748-0.01181 6.6475 0.70351 7.5853 0.17582 0.23052 0.53809 0.56365 0.80504 0.74031 0.93526 0.61893 1.2212 0.66045 4.5894 0.66633 2.7618 5e-3 3.1614-0.019 3.2281-0.1928zm10.087-0.0552c0.67238-0.3051 0.98494-0.31092 1.5341-0.0286 0.33357 0.1715 0.81705 0.22824 2.2155 0.26001 2.2933 0.0521 2.7983-0.0947 3.8109-1.1072 1.1509-1.1509 1.1147-0.83509 1.0769-9.4054l-0.03236-7.3294-3.0714-0.0704v7.3222c0 6.1095-0.02895 7.3462-0.17482 7.4673-0.11509 0.0955-0.63975 0.13288-1.5357 0.10936l-1.3609-0.0357-0.06268-7.3964-0.06268-7.3964-3.0714-0.0704v7.3125c0 5.5203-0.03687 7.3493-0.15043 7.4629-0.09843 0.0984-0.61845 0.15043-1.5043 0.15043-0.74465 0-1.3669-0.0141-1.3827-0.0313-0.01586-0.0172-0.05817-3.3597-0.09402-7.4277l-0.06519-7.3964-3.0714-0.0704v7.5923c0 8.2113-0.01727 7.9851 0.67932 8.8984 0.3647 0.47815 1.1568 1.037 1.7901 1.2628 0.31309 0.11167 1.0788 0.17094 2.2317 0.17275 1.4847 2e-3 1.8393-0.0354 2.3015-0.24522zm18.947-0.10221c0.79188-0.4113 1.3604-0.98191 1.7065-1.7128 0.28722-0.60652 0.29687-0.72738 0.29806-3.7324l1e-3 -3.1055-4.5757 0.0684v2.758l0.43877 0.0338c1.0703 0.0826 1.0152-6e-3 0.97563 1.568l-0.0354 1.4069h-2.8833l-0.0627-5.6805c-0.0345-3.1243-0.0215-5.7917 0.0288-5.9275 0.0847-0.22871 0.19588-0.24434 1.5043-0.21149l1.4128 0.0355 0.0355 1.3357c0.0249 0.93812 0.0863 1.3779 0.20616 1.4774 0.11014 0.0914 0.65349 0.129 1.5316 0.10596l1.3609-0.0357 0.0351-1.6031c0.0296-1.3496-2e-3 -1.6876-0.20129-2.1375-0.33431-0.75576-0.96032-1.4228-1.703-1.8147-0.61776-0.32597-0.704-0.3367-2.7066-0.3367-1.9068 0-2.1098 0.0221-2.5978 0.28284-0.80796 0.43173-1.3641 0.9787-1.7188 1.6905l-0.32184 0.64584v6.2475c0 6.7748-0.0118 6.6475 0.70352 7.5853 0.17582 0.23052 0.53808 0.56365 0.80504 0.74031 0.90013 0.59569 1.2958 0.67194 3.3179 0.6394 1.6925-0.0272 1.9368-0.0595 2.4446-0.32326zm8.1196-2.5638c0.0273-2.3144 0.0671-2.8697 0.20974-2.9244 0.18914-0.0726 2.2251 1.2414 2.6399 1.7037 0.22044 0.24572 0.2583 0.50883 0.31341 2.1785l0.0627 1.899h3.0087v-2.1312c0-2.0821-8e-3 -2.1477-0.35221-2.8484-0.24086-0.49048-0.65132-0.99285-1.2983-1.589l-0.94609-0.87176 0.54613-0.27338c0.69587-0.34831 1.4316-1.0466 1.779-1.6884 0.24683-0.45596 0.27519-0.72241 0.31266-2.9376 0.0283-1.6747-7e-3 -2.6098-0.11437-2.9918-0.23403-0.83589-0.977-1.6928-1.8315-2.1124l-0.72797-0.35746h-6.6442l-0.0324 8.7754c-0.0178 4.8264-5e-3 8.8477 0.0289 8.936 0.0462 0.12097 0.42617 0.15196 1.5368 0.12536l1.4754-0.0353zm0.0859-7.7686c-0.035-0.0912-0.048-1.0661-0.0289-2.1665l0.0347-2.0008h3.0087v4.2623l-1.4754 0.0353c-1.133 0.0271-1.4902-3e-3 -1.539-0.13039zm16.148 10.491c0.78245-0.2666 1.6924-1.0942 2.0519-1.8662l0.2941-0.63158-2e-3 -6.2681c-1e-3 -5.8249-0.0179-6.3041-0.23301-6.7778-0.33504-0.73764-0.96419-1.4007-1.6948-1.7863-0.61543-0.32474-0.70934-0.3367-2.6439-0.3367-1.7752 0-2.0714 0.0304-2.5763 0.26397-0.8115 0.37548-1.4309 0.96271-1.803 1.7093l-0.32183 0.64584v6.2475c0 6.7441-8e-3 6.6521 0.67932 7.5536 0.36469 0.47815 1.1568 1.037 1.7901 1.2628 0.70378 0.25103 3.7064 0.23996 4.4589-0.0164zm-3.7194-2.9168c-0.095-0.15367-0.10437-11.529-0.01-11.683 0.0412-0.0667 0.68934-0.12123 1.4403-0.12123 1.0524 0 1.3883 0.041 1.4656 0.17893 0.0551 0.0984 0.072 2.7639 0.0376 5.9234l-0.0627 5.7444-1.4004 0.0353c-0.77024 0.0195-1.432-0.0158-1.4707-0.0783zm16.41 2.7806c0.66472-0.35463 1.3783-1.0623 1.7248-1.7105l0.28101-0.52573v-15.294h-3.0087l-0.0652 7.3964c-0.0358 4.068-0.0782 7.4105-0.094 7.4277-0.0159 0.0172-0.67758 0.0313-1.4705 0.0313-0.79291 0-1.4546-0.0141-1.4705-0.0313-0.0159-0.0172-0.0582-3.3597-0.094-7.4277l-0.0652-7.3964h-3.0087l-0.0324 7.3294c-0.0379 8.5946-0.0734 8.2865 1.085 9.4195 1.028 1.0055 1.4035 1.1127 3.7738 1.0776 1.7102-0.0253 2.0032-0.0608 2.4446-0.29622zm8.137 0.13061c0.0429-0.11171 0.0753-3.4144 0.0722-7.3393-3e-3 -3.9249 0.0275-7.1901 0.0682-7.2559 0.0966-0.15627 2.7798-0.15627 2.8764 0 0.0407 0.0658 0.0714 3.331 0.0682 7.2559-3e-3 3.9249 0.0293 7.2276 0.0722 7.3393 0.0658 0.17149 0.31006 0.20312 1.5689 0.20312h1.4909v-7.5385c0-5.5334-0.0404-7.6758-0.1518-8.0545-0.0991-0.33674-0.39303-0.75771-0.8462-1.2118-0.99433-0.9964-1.5991-1.1654-3.9291-1.0979-1.6196 0.0469-1.8361 0.081-2.4066 0.37866-0.7784 0.40624-1.3504 0.99383-1.6825 1.7285-0.24731 0.54699-0.25514 0.79295-0.25781 8.0963-2e-3 4.1427 0.0349 7.5698 0.0808 7.6158 0.046 0.046 0.71688 0.0836 1.4909 0.0836 1.1818 0 1.4198-0.0326 1.4853-0.20312zm16.559-0.12885c0.66622-0.35776 1.379-1.0654 1.7248-1.7122 0.28056-0.52489 0.28101-0.53596 0.28101-6.9192 0-6.3196-3e-3 -6.3993-0.27163-6.8949-0.41314-0.7627-1.2105-1.5136-1.8825-1.7728-0.53289-0.20558-0.98695-0.23296-3.8633-0.23296h-3.2594l-0.0324 8.7754c-0.0178 4.8264-4e-3 8.8492 0.0303 8.9395 0.0501 0.13104 0.73987 0.15635 3.4172 0.12536 3.1518-0.0365 3.3848-0.0551 3.856-0.30811zm-4.1422-2.8334c-0.0331-0.0862-0.0454-2.7517-0.0274-5.9234l0.0327-5.7667 1.3609-0.0357c0.89593-0.0235 1.4206 0.0138 1.5357 0.10937 0.14476 0.12014 0.17482 1.1108 0.17482 5.7608 0 3.0886-0.0342 5.7049-0.0761 5.814-0.0632 0.16482-0.31796 0.1983-1.5083 0.1983-1.0301 0-1.449-0.044-1.4923-0.1567zm16.154 2.9658c0.75246-0.25639 1.7298-1.1367 2.1082-1.8989 0.28172-0.56743 0.29632-0.72039 0.29652-3.1041 0-2.112-0.0341-2.5831-0.2174-2.9884-0.35004-0.774-0.90695-1.3855-1.6223-1.7814-0.6355-0.35169-0.75117-0.37127-2.4224-0.40987-1.4373-0.0332-1.7834-0.0773-1.9118-0.2437-0.21535-0.2792-0.22088-3.9272-6e-3 -4.1418 0.10833-0.10833 0.96111-0.15044 3.0463-0.15044s2.938-0.0421 3.0463-0.15043c0.1734-0.17341 0.20892-2.4466 0.0423-2.7093-0.0828-0.13054-0.78666-0.15638-3.4142-0.12537l-3.3099 0.0391-0.63477 0.33501c-0.72211 0.38111-1.4502 1.1302-1.7735 1.8247-0.18658 0.40081-0.22046 0.85514-0.22224 2.9802-2e-3 2.4887 0 2.5125 0.34571 3.2155 0.37164 0.75676 1.1266 1.4711 1.9351 1.8311 0.33612 0.14967 0.97005 0.23091 2.1675 0.27775l1.6924 0.0662v4.2623l-2.936 0.0337c-1.9087 0.0219-2.9944 0.0821-3.1027 0.17206-0.17341 0.14391-0.24543 2.2639-0.0906 2.6673 0.11354 0.29588 6.1149 0.29478 6.9838-1e-3z" fill="#d4ca98" stroke-width=".12536"/>
 </g>
</svg>
