<svg width="205.18mm" height="17.517mm" version="1.1" viewBox="0 0 205.18 17.517" xmlns="http://www.w3.org/2000/svg">
 <g transform="translate(25.14 -97.831)">
  <path d="m2.4546 104.7c-2.6925-0.63293-3.421-0.97118-3.421-2.0379 0-0.75204 0.60694-1.5303 2.4259-1.5303 1.5542 0 2.7683 0.63069 3.8589 1.7472l2.4498-2.376c-1.6019-1.6737-3.5424-2.6688-6.1852-2.6688-3.3513 0-6.0677 1.8926-6.0677 4.9752 0 3.3472 2.1853 4.3425 5.3136 5.0687 3.2019 0.72642 3.7851 1.2139 3.7851 2.3064 0 1.2857-0.94931 1.8448-2.9594 1.8448-1.6258 0-3.1542-0.5572-4.3442-1.9442l-2.4502 2.1852c1.2855 1.8926 3.7632 3.0807 6.599 3.0807 4.637 0 6.6747-2.1832 6.6747-5.409 1.8e-4 -3.6897-2.985-4.6112-5.6794-5.242zm15.63-6.8658c-4.6328 0-7.3732 3.5902-7.3732 8.7584 0 5.1684 2.7402 8.7564 7.3732 8.7564s7.3772-3.588 7.3772-8.7564c0-5.1682-2.7442-8.7584-7.3772-8.7584zm0 14.146c-2.7402 0-3.8827-2.3543-3.8827-5.3853 0-3.0328 1.1423-5.3871 3.8827-5.3871 2.7443 0 3.8827 2.3543 3.8827 5.3871 0 3.031-1.1384 5.3853-3.8827 5.3853zm21.087-4.3425c0 2.7165-1.3373 4.392-3.4945 4.392-2.1593 0-3.4689-1.7234-3.4689-4.4397v-9.4906h-3.399v9.5385c0 4.9474 2.7683 7.7136 6.8676 7.7136 4.3185 0 6.8916-2.8399 6.8916-7.7612v-9.4908h-3.3969zm18.05-2.3541c0 0.94725 0.0477 3.0807 0.0477 3.7116-0.21877-0.43792-0.77597-1.2857-1.1881-1.9184l-6.0199-8.9792h-3.2499v16.987h3.3494v-7.475c0-0.94706-0.0479-3.0807-0.0479-3.7116 0.2169 0.43585 0.77803 1.2857 1.1881 1.9186l6.2368 9.2677h3.0328v-16.987h-3.3492v7.1863zm13.029-7.1842h-5.3135v16.987h5.0685c4.3683 0 8.6889-2.5254 8.6889-8.4936 0-6.213-3.5921-8.4936-8.4439-8.4936zm-0.24495 13.688h-1.6714v-10.386h1.795c3.5921 0 5.0728 1.7214 5.0728 5.1921-1.9e-4 3.1065-1.628 5.194-5.1964 5.194zm19.194-10.581c1.5284 0 2.4994 0.68062 3.1063 1.8448l3.1542-1.4547c-1.0686-2.2071-3.011-3.7613-6.213-3.7613-4.436 0-7.5445 3.5902-7.5445 8.7584 0 5.3613 2.9831 8.7564 7.423 8.7564 3.0826 0 5.1205-1.4308 6.2846-3.8329l-2.8617-1.6995c-0.8977 1.5065-1.7971 2.1613-3.3255 2.1613-2.5472 0-4.0278-2.3305-4.0278-5.3853-2e-3 -3.1523 1.459-5.3871 4.0044-5.3871zm12.599-3.1065h-3.3971v16.987h10.209v-3.3513h-6.8121zm15.761-0.26477c-4.6368 0-7.3772 3.5902-7.3772 8.7584 0 5.1684 2.7404 8.7564 7.3772 8.7564 4.6328 0 7.3751-3.588 7.3751-8.7564 1.9e-4 -5.1682-2.7423-8.7584-7.3751-8.7584zm0 14.146c-2.7443 0-3.8827-2.3543-3.8827-5.3853 0-3.0328 1.1383-5.3871 3.8827-5.3871 2.7385 0 3.8786 2.3543 3.8786 5.3871 0 3.031-1.14 5.3853-3.8786 5.3853zm21.083-4.3425c0 2.7165-1.3313 4.392-3.4906 4.392-2.1632 0-3.4708-1.7234-3.4708-4.4397v-9.4906h-3.3969v9.5385c0 4.9474 2.7662 7.7136 6.8676 7.7136 4.3185 0 6.8897-2.8399 6.8897-7.7612v-9.4908h-3.3991zm12.957-9.5383h-5.3116v16.987h5.0687c4.3701 0 8.6866-2.5254 8.6866-8.4936 0-6.213-3.59-8.4936-8.4437-8.4936zm-0.24289 13.688h-1.6737v-10.386h1.7971c3.588 0 5.0685 1.7214 5.0685 5.1921 1.9e-4 3.1065-1.6258 5.194-5.1919 5.194z" fill="#d4ca98" stroke-width=".18698"/>
 </g>
</svg>
