<?xml version="1.0" encoding="UTF-8" standalone="no"?>
<svg
   xmlns:dc="http://purl.org/dc/elements/1.1/"
   xmlns:cc="http://creativecommons.org/ns#"
   xmlns:rdf="http://www.w3.org/1999/02/22-rdf-syntax-ns#"
   xmlns:svg="http://www.w3.org/2000/svg"
   xmlns="http://www.w3.org/2000/svg"
   xmlns:sodipodi="http://sodipodi.sourceforge.net/DTD/sodipodi-0.dtd"
   xmlns:inkscape="http://www.inkscape.org/namespaces/inkscape"
   sodipodi:docname="Discord.svg"
   inkscape:version="1.0 (4035a4fb49, 2020-05-01)"
   id="svg8"
   version="1.1"
   viewBox="0 0 110.25672 80.154266"
   height="80.154266mm"
   width="110.25672mm">
  <defs
     id="defs2" />
  <sodipodi:namedview
     inkscape:window-maximized="1"
     inkscape:window-y="-8"
     inkscape:window-x="-8"
     inkscape:window-height="1017"
     inkscape:window-width="1920"
     showgrid="false"
     inkscape:document-rotation="0"
     inkscape:current-layer="layer1"
     inkscape:document-units="mm"
     inkscape:cy="610.93404"
     inkscape:cx="-109.0158"
     inkscape:zoom="0.35"
     inkscape:pageshadow="2"
     inkscape:pageopacity="0.0"
     borderopacity="1.0"
     bordercolor="#666666"
     pagecolor="#ffffff"
     id="base" />
  <metadata
     id="metadata5">
    <rdf:RDF>
      <cc:Work
         rdf:about="">
        <dc:format>image/svg+xml</dc:format>
        <dc:type
           rdf:resource="http://purl.org/dc/dcmitype/StillImage" />
        <dc:title></dc:title>
      </cc:Work>
    </rdf:RDF>
  </metadata>
  <g
     transform="translate(-63.523425,-97.406868)"
     id="layer1"
     inkscape:groupmode="layer"
     inkscape:label="Warstwa 1">
    <path
       id="path46"
       d="m 98.411161,162.28919 c -5.240089,-0.7471 -10.919217,-3.8063 -13.785716,-7.42602 l -1.10202,-1.39159 0.173543,-3.30729 c 0.439106,-8.36828 2.521858,-17.49662 5.867649,-25.71689 2.0731,-5.0934 2.525874,-5.81785 4.397073,-7.03546 4.094772,-2.66451 9.93847,-4.76801 13.5867,-4.89068 2.55256,-0.0858 2.47979,0.39138 -0.19422,1.27354 -4.56725,1.50675 -10.225592,4.37252 -12.514884,6.33838 -0.674956,0.5796 -0.473625,0.52464 1.345249,-0.36727 6.580125,-3.22665 14.080385,-4.82635 22.604795,-4.82129 7.81528,0.005 14.86106,1.61882 21.36698,4.89515 1.05111,0.52933 1.9111,0.8992 1.9111,0.82193 0,-0.0773 -1.10106,-0.8635 -2.44681,-1.74716 -2.86977,-1.88439 -6.30155,-3.56703 -9.6841,-4.7482 -1.33164,-0.46501 -2.42117,-0.93503 -2.42117,-1.04449 0,-1.00915 2.52832,-0.94652 6.68377,0.16555 2.72538,0.72936 6.63693,2.49396 9.14278,4.12454 1.8712,1.21761 2.32398,1.94206 4.39708,7.03546 3.34579,8.22027 5.42854,17.34861 5.86765,25.71689 l 0.17354,3.30729 -1.09731,1.38562 c -2.92511,3.69371 -8.63732,6.7071 -14.1403,7.45952 -3.23509,0.44233 -3.01657,0.53185 -5.16765,-2.117 -1.0701,-1.31773 -1.90354,-2.4272 -1.85208,-2.46549 0.0515,-0.0383 0.86747,-0.33969 1.81335,-0.6698 2.43532,-0.84991 5.029,-2.4392 7.01955,-4.30126 1.77917,-1.66434 2.28994,-2.51749 0.92551,-1.54593 -1.27587,0.9085 -6.03659,3.08879 -8.64874,3.9609 -5.01957,1.67588 -7.03408,1.9687 -13.58382,1.9745 -5.1854,0.005 -6.2894,-0.07 -8.56073,-0.57815 -4.8403,-1.08297 -10.25705,-3.10841 -13.652073,-5.10482 l -1.443012,-0.84854 0.735048,0.89606 c 1.799544,2.19373 5.173857,4.39824 9.121857,5.95951 0.60726,0.24015 0.57824,0.2987 -1.32292,2.66903 -2.17755,2.71494 -1.99768,2.64504 -5.515669,2.14346 z m 11.641669,-15.04686 c 3.62358,-1.83583 4.61198,-7.16574 1.91346,-10.31834 -2.94235,-3.43748 -7.83784,-2.78541 -10.0155,1.33405 -0.35823,0.67766 -0.49052,1.49932 -0.49323,3.06345 -0.003,1.92035 0.0776,2.26883 0.79632,3.4314 1.8021,2.91484 4.96593,3.92474 7.79895,2.48944 z m 22.00097,-0.018 c 2.1593,-1.08186 3.57408,-3.87762 3.32914,-6.57878 -0.31307,-3.4526 -2.81487,-5.9109 -6.01553,-5.9109 -3.42966,0 -6.07379,2.85845 -6.07379,6.56609 0,4.91355 4.58631,8.01479 8.76018,5.9236 z"
       style="fill:#d4ca98;fill-opacity:1;stroke-width:0.264583" />
    <path
       d=""
       id="path42"
       style="fill:#000000;stroke-width:0.264583" />
    <path
       d=""
       id="path40"
       style="fill:#000000;stroke-width:0.264583" />
    <path
       d=""
       id="path38"
       style="fill:#000000;stroke-width:0.264583" />
  </g>
</svg>
