<?xml version="1.0" encoding="UTF-8" standalone="no"?>
<svg
   xmlns:dc="http://purl.org/dc/elements/1.1/"
   xmlns:cc="http://creativecommons.org/ns#"
   xmlns:rdf="http://www.w3.org/1999/02/22-rdf-syntax-ns#"
   xmlns:svg="http://www.w3.org/2000/svg"
   xmlns="http://www.w3.org/2000/svg"
   xmlns:sodipodi="http://sodipodi.sourceforge.net/DTD/sodipodi-0.dtd"
   xmlns:inkscape="http://www.inkscape.org/namespaces/inkscape"
   width="1400"
   height="1164"
   viewBox="0 0 1400 1164"
   fill="none"
   version="1.1"
   id="svg4"
   sodipodi:docname="Github.svg"
   inkscape:version="1.0 (4035a4fb49, 2020-05-01)">
  <metadata
     id="metadata10">
    <rdf:RDF>
      <cc:Work
         rdf:about="">
        <dc:format>image/svg+xml</dc:format>
        <dc:type
           rdf:resource="http://purl.org/dc/dcmitype/StillImage" />
        <dc:title></dc:title>
      </cc:Work>
    </rdf:RDF>
  </metadata>
  <defs
     id="defs8" />
  <sodipodi:namedview
     inkscape:document-rotation="0"
     pagecolor="#ffffff"
     bordercolor="#666666"
     borderopacity="1"
     objecttolerance="10"
     gridtolerance="10"
     guidetolerance="10"
     inkscape:pageopacity="0"
     inkscape:pageshadow="2"
     inkscape:window-width="1784"
     inkscape:window-height="835"
     id="namedview6"
     showgrid="false"
     inkscape:zoom="0.14673847"
     inkscape:cx="343.87802"
     inkscape:cy="-153.29349"
     inkscape:window-x="58"
     inkscape:window-y="66"
     inkscape:window-maximized="0"
     inkscape:current-layer="svg4" />
  <path
     fill-rule="evenodd"
     clip-rule="evenodd"
     d="m 700,131.00005 c -255.255,0 -462,206.92737 -462,462.40753 0,204.61533 132.24751,377.44003 315.89249,438.70902 23.10002,4.0461 31.76252,-9.8261 31.76252,-21.9643 0,-10.98219 -0.5775,-47.39675 -0.5775,-86.12335 C 469,945.4153 438.97,895.7065 429.73,869.69608 c -5.19751,-13.29423 -27.72,-54.33289 -47.355,-65.31507 -16.17,-8.67015 -39.27,-30.05649 -0.57749,-30.6345 36.38249,-0.57801 62.37,33.52454 71.03249,47.39677 41.58,69.93914 107.99251,50.28682 134.55751,38.14863 4.0425,-30.05649 16.16999,-50.28682 29.4525,-61.84701 -102.795,-11.5602 -210.21002,-51.44284 -210.21002,-228.31372 0,-50.28682 17.90249,-91.9035 47.35501,-124.27202 -4.62,-11.56019 -20.79,-58.95696 4.62,-122.538 0,0 38.69249,-12.13819 127.05001,47.39677 36.95999,-10.40417 76.22999,-15.60625 115.49999,-15.60625 39.27001,0 78.54,5.20208 115.50001,15.60625 88.3575,-60.11297 127.05,-47.39677 127.05,-47.39677 25.41,63.58104 9.24,110.97781 4.61999,122.538 29.45251,32.36852 47.3551,73.40719 47.3551,124.27202 0,177.44889 -107.9926,216.75352 -210.7876,228.31372 16.7475,14.45023 31.185,42.19468 31.185,85.54539 0,61.847 -0.57751,111.55572 -0.57751,127.16201 0,12.1382 8.66251,26.5884 31.76251,21.9643 C 1029.7525,970.84761 1162,797.4449 1162,593.40758 1162,337.92742 955.255,131.00005 700,131.00005 Z"
     fill="#1B1F23"
     id="path2"
     style="fill:#d4ca98;fill-opacity:1;stroke-width:57.7754" />
</svg>
