<?xml version="1.0" encoding="UTF-8" standalone="no"?>
<svg
   xmlns:dc="http://purl.org/dc/elements/1.1/"
   xmlns:cc="http://creativecommons.org/ns#"
   xmlns:rdf="http://www.w3.org/1999/02/22-rdf-syntax-ns#"
   xmlns:svg="http://www.w3.org/2000/svg"
   xmlns="http://www.w3.org/2000/svg"
   xmlns:sodipodi="http://sodipodi.sourceforge.net/DTD/sodipodi-0.dtd"
   xmlns:inkscape="http://www.inkscape.org/namespaces/inkscape"
   width="460mm"
   height="180mm"
   viewBox="0 0 459.99998 180"
   version="1.1"
   id="svg8"
   inkscape:version="1.0 (4035a4fb49, 2020-05-01)"
   sodipodi:docname="Ko-Fi.svg">
  <defs
     id="defs2">
    <rect
       id="rect869"
       height="98.355185"
       width="280.09846"
       y="113.99613"
       x="201.97831" />
    <rect
       x="214.80725"
       y="69.094856"
       width="431.44482"
       height="81.90033"
       id="rect867" />
  </defs>
  <sodipodi:namedview
     id="base"
     pagecolor="#354855"
     bordercolor="#666666"
     borderopacity="1.0"
     inkscape:pageopacity="1"
     inkscape:pageshadow="2"
     inkscape:zoom="0.35"
     inkscape:cx="592.28962"
     inkscape:cy="169.82067"
     inkscape:document-units="mm"
     inkscape:current-layer="layer1"
     inkscape:document-rotation="0"
     showgrid="false"
     lock-margins="false"
     inkscape:pagecheckerboard="false"
     showguides="true"
     inkscape:guide-bbox="true"
     inkscape:snap-nodes="false"
     inkscape:snap-others="false"
     inkscape:snap-global="false"
     inkscape:window-width="1920"
     inkscape:window-height="1017"
     inkscape:window-x="-8"
     inkscape:window-y="-8"
     inkscape:window-maximized="1" />
  <metadata
     id="metadata5">
    <rdf:RDF>
      <cc:Work
         rdf:about="">
        <dc:format>image/svg+xml</dc:format>
        <dc:type
           rdf:resource="http://purl.org/dc/dcmitype/StillImage" />
        <dc:title></dc:title>
      </cc:Work>
    </rdf:RDF>
  </metadata>
  <g
     inkscape:label="Warstwa 1"
     inkscape:groupmode="layer"
     id="layer1"
     transform="translate(-35.202129,-62.680385)">
    <circle
       r="81.642845"
       cy="149.61491"
       cx="263.49979"
       id="path864"
       style="display:none;fill:#d4ca98;fill-opacity:1;stroke-width:0.248478" />
    <path
       style="display:none;fill:#ffffff;fill-opacity:1;stroke-width:0.274519"
       d="m 216.95786,193.65734 c -3.82541,-1.02912 -6.98269,-3.4106 -8.49595,-6.40834 -1.69351,-3.35482 -1.66125,-2.62809 -1.66125,-37.43012 v -31.66035 l 0.61767,-1.22266 c 0.33971,-0.67247 1.04086,-1.50393 1.55811,-1.8477 l 0.94044,-0.62505 48.47298,0.0738 48.47298,0.0738 2.74519,0.76939 c 12.72194,3.56555 20.57911,12.8098 22.11474,26.01884 1.06903,9.19551 -2.1603,18.28545 -8.65435,24.36033 -5.75581,5.38427 -13.26814,8.27623 -22.68847,8.73419 l -3.73771,0.1817 -0.13975,2.91006 c -0.38259,7.96665 -4.383,13.49377 -11.46391,15.83902 -1.42143,0.47078 -3.41504,0.50415 -34.04036,0.56968 -28.00709,0.0599 -32.74045,0.0131 -34.04036,-0.33657 z m 87.3337,-34.4125 c 3.9862,-0.41873 8.31281,-3.3067 10.19518,-6.80522 1.84528,-3.42956 2.44425,-9.62088 1.29175,-13.35225 -1.14469,-3.70606 -4.22847,-7.01494 -7.86582,-8.43997 -1.37891,-0.54021 -2.23145,-0.6422 -6.19706,-0.74132 l -4.5982,-0.11493 v 14.69621 14.69621 l 0.75493,0.11437 c 1.31414,0.19908 4.2497,0.17479 6.41922,-0.0531 z"
       id="path863" />
    <path
       style="fill:#d4ca98;fill-opacity:1;stroke-width:0.496381"
       d="m 146.30637,194.96113 c -2.66376,-2.04718 -22.23315,-20.42641 -29.49973,-27.70565 -8.49399,-8.50877 -11.61668,-12.88023 -13.66465,-19.12909 -1.29364,-3.94722 -1.45285,-5.11591 -1.45285,-10.66435 0,-6.19311 0.0109,-6.25426 1.84944,-9.97257 7.0311,-14.2234 26.91883,-16.44533 41.26678,-4.61048 l 3.28155,2.70677 3.35756,-2.72937 c 3.71237,-3.01783 10.08339,-6.39592 13.53336,-7.17579 3.74546,-0.84665 9.97248,-0.63636 13.50993,0.45624 11.25492,3.4763 17.7744,13.72892 16.27088,25.58766 -0.77609,6.12119 -2.75665,10.50808 -7.38783,16.36394 -5.27783,6.67347 -37.36602,37.97322 -38.9298,37.97322 -0.38646,0 -1.34705,-0.49525 -2.13464,-1.10053 z"
       id="path861" />
    <path
       style="display:none;fill:#ffffff;fill-opacity:1;stroke-width:0.524163"
       d="m 313.14957,186.59817 c -6.3994,-1.721 -12.55491,-6.50766 -16.04038,-12.47332 -3.28932,-5.62979 -4.47373,-15.91757 -2.57632,-22.37724 2.21181,-7.53028 7.2493,-13.68683 13.84034,-16.91508 15.22041,-7.45485 33.01351,-0.30625 38.27757,15.37847 5.27306,15.7117 -3.15802,32.38993 -18.42823,36.45423 -3.58025,0.95291 -11.40986,0.9181 -15.07298,-0.067 z m 14.38101,-11.47885 c 3.06874,-1.5014 5.38967,-3.85081 7.14464,-7.23236 1.6254,-3.13191 1.99036,-10.92981 0.67488,-14.42034 -1.43274,-3.80174 -3.60592,-6.61801 -6.57901,-8.52581 -2.37604,-1.52471 -3.24002,-1.7667 -7.01517,-1.96486 -5.01429,-0.26318 -7.68765,0.63942 -11.14482,3.76274 -4.07128,3.67817 -6.23195,11.3161 -4.85625,17.16661 0.82271,3.49868 1.65002,5.15741 3.78536,7.58942 4.71195,5.36662 11.59526,6.75345 17.99037,3.6246 z m -94.42732,9.47683 -1.78214,-1.78216 v -31.00414 c 0,-34.01469 -0.0715,-33.22009 3.12782,-34.87439 2.92533,-1.51275 7.16333,-0.4253 8.33113,2.1377 0.3997,0.87725 0.59681,6.03334 0.59681,15.61231 0,7.86637 0.1585,14.46102 0.35228,14.65477 0.19377,0.19377 7.83128,-7.07408 16.97227,-16.15073 9.141,-9.07664 17.25338,-16.74383 18.02758,-17.03819 2.48446,-0.94458 3.97303,-0.62714 5.84714,1.24701 1.46414,1.46413 1.78218,2.1772 1.78218,3.99594 0,2.17024 -0.15701,2.36434 -7.99299,9.88047 -4.39612,4.21671 -9.74283,9.34675 -11.88154,11.40008 l -3.88858,3.73339 10.17802,13.44366 c 14.13677,18.67265 13.58509,17.83572 13.58509,20.6082 0,1.97813 -0.28452,2.63844 -1.78218,4.13608 -1.54223,1.54227 -2.12435,1.78059 -4.32435,1.77052 -1.61999,-0.009 -2.94163,-0.34017 -3.64332,-0.9173 -0.60562,-0.4981 -6.00366,-7.39216 -11.99566,-15.32014 -5.99204,-7.92798 -10.98809,-14.5203 -11.10239,-14.6496 -0.11418,-0.12928 -2.44114,1.9889 -5.17069,4.70713 l -4.96286,4.94221 v 9.09253 9.09246 l -1.53219,1.53219 c -1.29883,1.29885 -1.94539,1.53217 -4.24571,1.53217 -2.38712,0 -2.92796,-0.2144 -4.49572,-1.78217 z m 175.19972,0.49681 c -0.76281,-0.70699 -1.4386,-1.35563 -1.50178,-1.4415 -0.063,-0.0859 -0.24004,-8.88337 -0.39313,-19.55012 l -0.27828,-19.39406 -4.10903,-0.26206 c -3.69259,-0.23554 -4.23716,-0.41118 -5.37273,-1.73278 -1.85483,-2.15879 -1.74137,-5.20842 0.26858,-7.21835 1.42379,-1.42382 1.81298,-1.53216 5.50372,-1.53216 h 3.97155 V 130.114 c 0,-11.46548 6.93055,-17.84885 19.39406,-17.8629 6.27368,-0.009 9.48199,1.88775 9.58901,5.66316 0.12189,4.30525 -2.38512,6.00318 -7.40575,5.01543 -4.14439,-0.81535 -6.49609,-0.34536 -8.15867,1.63055 -1.47954,1.75833 -2.04528,3.98634 -1.79408,7.06601 l 0.16912,2.07361 5.76579,0.28135 c 6.53937,0.31914 7.33565,0.56913 8.40602,2.63901 1.03656,2.00449 0.96178,3.56769 -0.26718,5.58322 -1.23397,2.02384 -1.89874,2.20601 -8.663,2.37382 l -5.24163,0.13002 -0.2621,19.57101 -0.26206,19.57099 -1.47068,1.26453 c -2.08013,1.78851 -5.94638,1.77829 -7.88775,-0.0207 z m 33.69174,-0.24681 -1.53218,-1.53219 v -23.07888 c 0,-16.77678 0.17103,-23.45415 0.62622,-24.45323 1.42256,-3.1222 6.14311,-3.82998 8.93152,-1.33914 l 1.71178,1.52912 0.16147,22.97557 c 0.14442,20.55057 0.0699,23.14881 -0.70456,24.61738 -1.7022,3.22731 -6.56989,3.90571 -9.19425,1.28137 z m -81.59374,-23.86754 c -3.29145,-1.46092 -4.2158,-6.3826 -1.7049,-9.0777 0.5711,-0.61305 1.92443,-1.36067 3.00741,-1.66141 2.72687,-0.75728 18.80152,-0.65638 21.05192,0.13212 4.04739,1.41819 5.19924,6.46173 2.16845,9.49474 l -1.61301,1.61416 -10.60542,0.1262 c -8.30427,0.0989 -10.97407,-0.0377 -12.30445,-0.62803 z M 442.7779,125.5649 c -1.98223,-0.61129 -2.83953,-2.34757 -2.83953,-5.75082 0,-1.95783 0.3002,-2.91595 1.26503,-4.03762 1.14024,-1.32564 1.59489,-1.4707 4.60949,-1.4707 2.31902,0 3.77937,0.28496 4.76287,0.92936 1.33175,0.87263 1.41838,1.16803 1.41838,4.83645 0,3.53362 -0.11877,3.98497 -1.24411,4.72222 -1.55343,1.01789 -5.83047,1.43156 -7.97213,0.77111 z"
       id="path887" />
    <g
       aria-label="Donate"
       transform="translate(8.100581,4.9405523)"
       id="text867"
       style="font-style:normal;font-variant:normal;font-weight:500;font-stretch:normal;font-size:10.5833px;line-height:1.25;font-family:Quicksand;-inkscape-font-specification:'Quicksand Medium';white-space:pre;shape-inside:url(#rect869);fill:#000000;fill-opacity:1;stroke:none">
      <path
         d="m 226.51491,128.60109 q 4.73851,0 8.30862,1.81751 3.63503,1.7526 6.03674,4.93325 2.40171,3.18064 3.57011,7.33495 1.23331,4.0894 1.23331,8.63318 0,6.23146 -2.14207,11.42435 -2.14207,5.12798 -6.36129,8.24371 -4.21922,3.05082 -10.64542,3.05082 h -16.22777 q -1.10349,0 -1.88243,-0.77893 -0.71402,-0.77893 -0.71402,-1.88242 v -40.17997 q 0,-1.10349 0.71402,-1.81752 0.77894,-0.77893 1.88243,-0.77893 z m -0.64911,40.37471 q 4.99816,0 8.11389,-2.40171 3.18064,-2.40171 4.60869,-6.4262 1.49295,-4.02449 1.49295,-8.82791 0,-3.5052 -0.84384,-6.68585 -0.77893,-3.24555 -2.53153,-5.71217 -1.68769,-2.46662 -4.41396,-3.89467 -2.66135,-1.42804 -6.4262,-1.42804 h -13.30677 l 0.51928,-0.51929 v 36.54495 l -0.38946,-0.64911 z"
         style="font-style:normal;font-variant:normal;font-weight:500;font-stretch:normal;font-size:64.9111px;font-family:Quicksand;-inkscape-font-specification:'Quicksand Medium';fill:#ffffff"
         id="path841" />
      <path
         d="m 285.4907,157.16198 q 0,5.06306 -2.20697,9.02264 -2.20698,3.95958 -6.03674,6.23147 -3.76484,2.27188 -8.56826,2.27188 -4.73851,0 -8.56827,-2.27188 -3.76484,-2.27189 -6.03673,-6.23147 -2.20698,-3.95958 -2.20698,-9.02264 0,-5.06307 2.20698,-9.02265 2.27189,-3.95957 6.03673,-6.23146 3.82976,-2.27189 8.56827,-2.27189 4.80342,0 8.56826,2.27189 3.82976,2.27189 6.03674,6.23146 2.20697,3.95958 2.20697,9.02265 z m -5.19288,0 q 0,-3.76485 -1.55787,-6.62094 -1.49296,-2.85608 -4.15431,-4.47886 -2.59644,-1.62278 -5.90691,-1.62278 -3.24556,0 -5.90691,1.62278 -2.66136,1.62278 -4.21922,4.47886 -1.49296,2.85609 -1.49296,6.62094 0,3.69993 1.49296,6.55602 1.55786,2.85609 4.21922,4.54378 2.66135,1.62277 5.90691,1.62277 3.31047,0 5.90691,-1.62277 2.66135,-1.68769 4.15431,-4.54378 1.55787,-2.85609 1.55787,-6.55602 z"
         style="font-style:normal;font-variant:normal;font-weight:500;font-stretch:normal;font-size:64.9111px;font-family:Quicksand;-inkscape-font-specification:'Quicksand Medium';fill:#ffffff"
         id="path843" />
      <path
         d="m 309.67414,139.63598 q 4.41396,0 6.94549,1.81751 2.53153,1.81751 3.57011,4.86833 1.10349,3.05082 1.10349,6.81567 v 18.24002 q 0,1.10349 -0.77893,1.88242 -0.71403,0.77893 -1.81751,0.77893 -1.10349,0 -1.88243,-0.77893 -0.71402,-0.77893 -0.71402,-1.88242 v -18.1102 q 0,-2.46662 -0.77893,-4.41395 -0.71402,-2.01225 -2.46662,-3.18065 -1.68769,-1.23331 -4.6736,-1.23331 -2.72627,0 -4.99816,1.23331 -2.27189,1.1684 -3.63502,3.18065 -1.36313,1.94733 -1.36313,4.41395 v 18.1102 q 0,1.10349 -0.77894,1.88242 -0.71402,0.77893 -1.81751,0.77893 -1.10348,0 -1.88242,-0.77893 -0.71402,-0.77893 -0.71402,-1.88242 v -28.30124 q 0,-1.10349 0.71402,-1.81751 0.77894,-0.77894 1.88242,-0.77894 1.1684,0 1.88243,0.77894 0.71402,0.71402 0.71402,1.81751 v 4.60869 l -1.29822,1.42804 q 0.32455,-1.68769 1.49295,-3.37538 1.1684,-1.7526 2.921,-3.11573 1.7526,-1.36313 3.89467,-2.14207 2.14206,-0.84384 4.47886,-0.84384 z"
         style="font-style:normal;font-variant:normal;font-weight:500;font-stretch:normal;font-size:64.9111px;font-family:Quicksand;-inkscape-font-specification:'Quicksand Medium';fill:#ffffff"
         id="path845" />
      <path
         d="m 358.22664,140.15527 q 1.1684,0 1.88242,0.77893 0.71402,0.71402 0.71402,1.81751 v 28.6258 q 0,1.10349 -0.77893,1.88242 -0.71402,0.77893 -1.81751,0.77893 -1.10349,0 -1.88242,-0.77893 -0.71403,-0.77893 -0.71403,-1.88242 v -6.16656 l 1.23331,-0.12982 q 0,1.42805 -0.97366,3.11573 -0.97367,1.68769 -2.66136,3.18065 -1.68769,1.42804 -3.95957,2.40171 -2.27189,0.90875 -4.93325,0.90875 -4.41395,0 -7.98406,-2.27188 -3.5052,-2.3368 -5.51745,-6.29638 -2.01224,-3.95958 -2.01224,-9.02264 0,-5.12798 2.01224,-9.02265 2.07716,-3.95957 5.51745,-6.16655 3.5052,-2.27189 7.85424,-2.27189 2.79118,0 5.19289,0.90875 2.40171,0.90876 4.15431,2.46663 1.81751,1.55786 2.79118,3.44028 0.97366,1.88243 0.97366,3.76485 l -1.68769,-0.38947 v -7.07531 q 0,-1.10349 0.71403,-1.81751 0.77893,-0.77893 1.88242,-0.77893 z m -13.37169,29.72928 q 3.24556,0 5.71218,-1.68769 2.53153,-1.68768 3.95957,-4.54377 1.42805,-2.921 1.42805,-6.55602 0,-3.57011 -1.42805,-6.4262 -1.42804,-2.921 -3.95957,-4.54378 -2.46662,-1.68769 -5.71218,-1.68769 -3.18064,0 -5.71218,1.62278 -2.46662,1.62278 -3.89466,4.47886 -1.42805,2.85609 -1.42805,6.55603 0,3.63502 1.42805,6.55602 1.42804,2.85609 3.89466,4.54377 2.53154,1.68769 5.71218,1.68769 z"
         style="font-style:normal;font-variant:normal;font-weight:500;font-stretch:normal;font-size:64.9111px;font-family:Quicksand;-inkscape-font-specification:'Quicksand Medium';fill:#ffffff"
         id="path847" />
      <path
         d="m 369.15605,140.67456 h 15.25411 q 1.03857,0 1.68769,0.71402 0.71402,0.71402 0.71402,1.68769 0,1.03858 -0.71402,1.7526 -0.64912,0.64911 -1.68769,0.64911 h -15.25411 q -0.97367,0 -1.68769,-0.71402 -0.71402,-0.71403 -0.71402,-1.7526 0,-0.97367 0.71402,-1.62278 0.71402,-0.71402 1.68769,-0.71402 z m 6.81566,-8.82791 q 1.10349,0 1.81751,0.77893 0.71403,0.71402 0.71403,1.81751 v 31.35206 q 0,1.55787 0.45437,2.3368 0.45438,0.77894 1.1684,1.10349 0.77894,0.25965 1.49296,0.25965 0.64911,0 1.10349,-0.19474 0.51929,-0.25964 1.1684,-0.25964 0.64911,0 1.1684,0.64911 0.5842,0.5842 0.5842,1.55787 0,1.1684 -1.36314,2.01224 -1.36313,0.77893 -3.05082,0.77893 -0.90875,0 -2.27189,-0.12982 -1.29822,-0.12982 -2.59644,-0.84384 -1.29822,-0.71403 -2.20698,-2.3368 -0.84384,-1.68769 -0.84384,-4.6736 v -31.61171 q 0,-1.10349 0.77893,-1.81751 0.77893,-0.77893 1.88242,-0.77893 z"
         style="font-style:normal;font-variant:normal;font-weight:500;font-stretch:normal;font-size:64.9111px;font-family:Quicksand;-inkscape-font-specification:'Quicksand Medium';fill:#ffffff"
         id="path849" />
      <path
         d="m 408.84411,174.68797 q -5.19289,0 -9.08756,-2.20697 -3.89466,-2.20698 -6.03673,-6.03674 -2.14207,-3.89466 -2.14207,-8.95773 0,-5.64726 2.20698,-9.60684 2.27189,-4.02449 5.842,-6.10164 3.57011,-2.14207 7.5946,-2.14207 3.05082,0 5.77709,1.10349 2.79117,1.10349 4.93324,3.24555 2.20698,2.07716 3.5052,5.06307 1.29822,2.921 1.36313,6.55602 -0.0649,1.03858 -0.84384,1.7526 -0.77893,0.71402 -1.81751,0.71402 h -25.63989 l -1.1684,-4.47886 h 24.99078 l -1.03858,0.90875 v -1.42804 q -0.19473,-2.66136 -1.7526,-4.54378 -1.49296,-1.94733 -3.69993,-2.98591 -2.20698,-1.03858 -4.60869,-1.03858 -1.94733,0 -3.89467,0.71402 -1.88242,0.64911 -3.44029,2.20698 -1.49295,1.49296 -2.40171,3.89467 -0.90875,2.40171 -0.90875,5.77709 0,3.76484 1.49295,6.62093 1.55787,2.85609 4.28414,4.54378 2.72626,1.62277 6.29637,1.62277 2.3368,0 4.02449,-0.5842 1.68769,-0.5842 2.85609,-1.42804 1.23331,-0.90876 2.07715,-1.81751 0.84385,-0.5842 1.68769,-0.5842 0.90876,0 1.55787,0.64911 0.64911,0.64911 0.64911,1.55787 0,1.10348 -1.03858,1.94733 -1.88242,2.01224 -4.99815,3.57011 -3.05082,1.49295 -6.62093,1.49295 z"
         style="font-style:normal;font-variant:normal;font-weight:500;font-stretch:normal;font-size:64.9111px;font-family:Quicksand;-inkscape-font-specification:'Quicksand Medium';fill:#ffffff"
         id="path851" />
    </g>
  </g>
</svg>
