<?xml version="1.0" encoding="UTF-8" standalone="no"?>
<svg
   xmlns:dc="http://purl.org/dc/elements/1.1/"
   xmlns:cc="http://creativecommons.org/ns#"
   xmlns:rdf="http://www.w3.org/1999/02/22-rdf-syntax-ns#"
   xmlns:svg="http://www.w3.org/2000/svg"
   xmlns="http://www.w3.org/2000/svg"
   xmlns:sodipodi="http://sodipodi.sourceforge.net/DTD/sodipodi-0.dtd"
   xmlns:inkscape="http://www.inkscape.org/namespaces/inkscape"
   sodipodi:docname="SoundCloud.svg"
   inkscape:version="1.0 (4035a4fb49, 2020-05-01)"
   id="svg1726"
   version="1.1"
   viewBox="0 0 205.1841 17.516825"
   height="17.516825mm"
   width="205.1841mm">
  <defs
     id="defs1720" />
  <sodipodi:namedview
     inkscape:window-maximized="0"
     inkscape:window-y="0"
     inkscape:window-x="208"
     inkscape:window-height="1040"
     inkscape:window-width="1715"
     showgrid="false"
     inkscape:document-rotation="0"
     inkscape:current-layer="layer1"
     inkscape:document-units="mm"
     inkscape:cy="190.24551"
     inkscape:cx="1155.0161"
     inkscape:zoom="0.35"
     inkscape:pageshadow="2"
     inkscape:pageopacity="0.0"
     borderopacity="1.0"
     bordercolor="#666666"
     pagecolor="#ffffff"
     id="base" />
  <metadata
     id="metadata1723">
    <rdf:RDF>
      <cc:Work
         rdf:about="">
        <dc:format>image/svg+xml</dc:format>
        <dc:type
           rdf:resource="http://purl.org/dc/dcmitype/StillImage" />
        <dc:title></dc:title>
      </cc:Work>
    </rdf:RDF>
  </metadata>
  <g
     transform="translate(25.139664,-97.830876)"
     id="layer1"
     inkscape:groupmode="layer"
     inkscape:label="Warstwa 1">
    <path
       id="path297"
       fill="url(#a)"
       d="m 2.454596,104.69666 c -2.69253,-0.63293 -3.42101,-0.97118 -3.42101,-2.03791 0,-0.75204 0.60694,-1.53026 2.4259,-1.53026 1.55419,0 2.76826,0.63069 3.85893,1.74716 l 2.44983,-2.37598 c -1.60187,-1.673674 -3.54237,-2.668794 -6.18517,-2.668794 -3.35127,0 -6.06774,1.89263 -6.06774,4.975214 0,3.34716 2.18526,4.34246 5.31365,5.0687 3.20187,0.72642 3.78507,1.21388 3.78507,2.30642 0,1.28569 -0.94931,1.84476 -2.95936,1.84476 -1.62581,0 -3.1542,-0.5572 -4.34415,-1.94423 l -2.45021,2.18525 c 1.2855,1.89263 3.7632,3.08071 6.59896,3.08071 4.63696,0 6.67469,-2.1832 6.67469,-5.40901 1.8e-4,-3.68971 -2.98498,-4.61115 -5.67939,-5.24203 z m 15.6298,-6.865784 c -4.63284,0 -7.37325,3.590244 -7.37325,8.758414 0,5.16836 2.74022,8.75635 7.37325,8.75635 4.63303,0 7.37718,-3.58799 7.37718,-8.75635 0,-5.16817 -2.74415,-8.758414 -7.37718,-8.758414 z m 0,14.145544 c -2.74021,0 -3.88267,-2.35429 -3.88267,-5.38526 0,-3.03284 1.14227,-5.38713 3.88267,-5.38713 2.74433,0 3.88268,2.35429 3.88268,5.38713 0,3.03097 -1.13835,5.38526 -3.88268,5.38526 z m 21.08705,-4.34246 c 0,2.71647 -1.3373,4.39201 -3.4945,4.39201 -2.15927,0 -3.46889,-1.72341 -3.46889,-4.43969 v -9.490634 h -3.39895 v 9.538494 c 0,4.94735 2.76826,7.71356 6.86765,7.71356 4.31853,0 6.89158,-2.83988 6.89158,-7.76124 v -9.490814 h -3.39689 z m 18.0499,-2.3541 c 0,0.94725 0.0477,3.08071 0.0477,3.71159 -0.21877,-0.43792 -0.77597,-1.28569 -1.18808,-1.91844 l -6.01988,-8.979234 h -3.24993 v 16.987474 h 3.34941 v -7.47497 c 0,-0.94706 -0.0479,-3.08071 -0.0479,-3.71158 0.2169,0.43585 0.77803,1.28569 1.18808,1.91862 l 6.23677,9.26774 h 3.03285 V 98.093586 h -3.34922 v 7.186274 z m 13.02907,-7.184214 h -5.31346 v 16.987284 h 5.06851 c 4.368273,0 8.688853,-2.52537 8.688853,-8.49364 0,-6.21303 -3.5921,-8.493644 -8.443903,-8.493644 z m -0.24495,13.687624 h -1.67143 v -10.38608 h 1.79503 c 3.592103,0 5.072813,1.72135 5.072813,5.1921 -1.9e-4,3.10652 -1.62805,5.19398 -5.196413,5.19398 z m 19.194413,-10.58111 c 1.52838,0 2.49938,0.68062 3.10632,1.84476 l 3.154197,-1.45471 c -1.068597,-2.207134 -3.010967,-3.761334 -6.213027,-3.761334 -4.43595,0 -7.54452,3.590244 -7.54452,8.758414 0,5.36133 2.9831,8.75635 7.42298,8.75635 3.08258,0 5.12049,-1.43078 6.284637,-3.83294 l -2.861747,-1.69947 c -0.8977,1.50651 -1.79708,2.16132 -3.32547,2.16132 -2.54725,0 -4.02777,-2.33054 -4.02777,-5.38526 -0.002,-3.15232 1.45902,-5.38713 4.0044,-5.38713 z M 101.79889,98.095646 H 98.401806 V 115.08293 H 108.611 v -3.35127 h -6.81211 z m 15.76143,-0.26477 c -4.63677,0 -7.37717,3.590244 -7.37717,8.758414 0,5.16836 2.7404,8.75635 7.37717,8.75635 4.63284,0 7.37512,-3.58799 7.37512,-8.75635 1.9e-4,-5.16817 -2.74228,-8.758414 -7.37512,-8.758414 z m 0,14.145544 c -2.74433,0 -3.88267,-2.35429 -3.88267,-5.38526 0,-3.03284 1.13834,-5.38713 3.88267,-5.38713 2.73853,0 3.87856,2.35429 3.87856,5.38713 0,3.03097 -1.14003,5.38526 -3.87856,5.38526 z m 21.08293,-4.34246 c 0,2.71647 -1.33131,4.39201 -3.49057,4.39201 -2.16319,0 -3.47076,-1.72341 -3.47076,-4.43969 v -9.490634 h -3.39689 v 9.538494 c 0,4.94735 2.76621,7.71356 6.86765,7.71356 4.31853,0 6.88971,-2.83988 6.88971,-7.76124 v -9.490814 h -3.39914 z m 12.95746,-9.538314 h -5.31159 v 16.987284 h 5.0687 c 4.37013,0 8.68661,-2.52537 8.68661,-8.49364 0,-6.21303 -3.59005,-8.493644 -8.44372,-8.493644 z m -0.24289,13.687624 h -1.67368 v -10.38608 h 1.79709 c 3.58799,0 5.06851,1.72135 5.06851,5.1921 1.9e-4,3.10652 -1.62581,5.19398 -5.19192,5.19398 z"
       style="fill:#d4ca98;fill-opacity:1;stroke-width:0.186982"
       sodipodi:nodetypes="cssccsscssccsccsssssssssssssccsssccscccccccsccccccccsccssssccscssccsssccscscccccccssscsssssssssccsssccssccssssccscs" />
  </g>
</svg>
